<?xml version="1.0" encoding="utf-8"?>
<!-- Generator: Adobe Illustrator 21.0.0, SVG Export Plug-In . SVG Version: 6.00 Build 0)  -->
<svg version="1.1" id="Layer_1" xmlns="http://www.w3.org/2000/svg" xmlns:xlink="http://www.w3.org/1999/xlink" x="0px" y="0px"
	 viewBox="0 0 108 20" style="enable-background:new 0 0 108 20;" xml:space="preserve">
<style type="text/css">
	.st0{fill:#FFFFFF;}
</style>
<g>
	<path class="st0" d="M2.8,1.1l6.9,16.4l6.9-16.4h2.1v18.6H17v-8.1l0.1-8.3l-6.9,16.4H9L2.1,3.3l0.1,8.2v8.2H0.7V1.1H2.8z"/>
	<path class="st0" d="M31.7,19.7c-0.2-0.4-0.3-1.1-0.3-1.9c-0.5,0.7-1.2,1.2-2.1,1.6c-0.8,0.4-1.7,0.6-2.6,0.6
		c-1.3,0-2.4-0.4-3.2-1.1s-1.2-1.7-1.2-2.8c0-1.3,0.6-2.4,1.7-3.2c1.1-0.8,2.7-1.2,4.7-1.2h2.8v-1.6c0-1-0.3-1.8-0.9-2.3
		c-0.6-0.6-1.5-0.9-2.7-0.9c-1.1,0-1.9,0.3-2.6,0.8c-0.7,0.5-1,1.2-1,2l-1.5,0c0-1.1,0.5-2.1,1.5-2.9c1-0.8,2.3-1.2,3.8-1.2
		c1.5,0,2.8,0.4,3.6,1.2c0.9,0.8,1.3,1.8,1.4,3.2v6.5c0,1.3,0.1,2.3,0.4,3v0.2H31.7z M26.9,18.6c1,0,1.9-0.2,2.7-0.7
		c0.8-0.5,1.4-1.2,1.8-2v-3h-2.7c-1.5,0-2.7,0.3-3.6,0.8c-0.9,0.5-1.3,1.3-1.3,2.2c0,0.8,0.3,1.4,0.9,1.9S26,18.6,26.9,18.6z"/>
	<path class="st0" d="M43.4,7.2c-0.3-0.1-0.7-0.1-1-0.1c-1,0-1.8,0.3-2.4,0.8c-0.7,0.5-1.1,1.3-1.4,2.3v9.5H37V5.9h1.5l0,2.2
		c0.8-1.6,2.1-2.5,3.9-2.5c0.4,0,0.8,0.1,1,0.2L43.4,7.2z"/>
	<path class="st0" d="M49.1,12.7l-1.8,1.7v5.3h-1.5V0.1h1.5v12.6l1.4-1.6l5.3-5.2H56l-5.9,5.8l6.4,8h-1.8L49.1,12.7z"/>
	<path class="st0" d="M73.8,10.8c0,1.8-0.3,3.4-1,4.8c-0.7,1.4-1.6,2.5-2.9,3.2c-1.2,0.8-2.7,1.1-4.2,1.1c-1.6,0-3-0.4-4.2-1.1
		s-2.2-1.8-2.9-3.1c-0.7-1.4-1-2.9-1.1-4.7v-1c0-1.8,0.3-3.4,1-4.8c0.7-1.4,1.6-2.5,2.9-3.2c1.2-0.8,2.7-1.1,4.3-1.1
		c1.6,0,3,0.4,4.2,1.1c1.2,0.8,2.2,1.8,2.9,3.2c0.7,1.4,1,3,1,4.8V10.8z M69.2,10c0-1.8-0.3-3.3-0.9-4.2c-0.6-1-1.5-1.4-2.7-1.4
		c-2.3,0-3.4,1.7-3.6,5.1l0,1.4c0,1.8,0.3,3.2,0.9,4.2s1.5,1.5,2.7,1.5c1.1,0,2-0.5,2.6-1.4c0.6-1,0.9-2.3,0.9-4.2V10z"/>
	<path class="st0" d="M91.6,19.7h-4.5L80.6,8.1v11.6h-4.5V1.1h4.5l6.6,11.6V1.1h4.5V19.7z"/>
	<path class="st0" d="M106,11.8H99v4.4h8.3v3.5H94.5V1.1h12.8v3.5H99v3.9h7.1V11.8z"/>
</g>
</svg>
